<svg width="54" height="24" viewBox="0 0 54 24" fill="none" xmlns="http://www.w3.org/2000/svg">
<path d="M6.26 19.24C10.26 19.24 12.2 17.24 12.2 14.9C12.2 9.76 4.06 11.54 4.06 8.96C4.06 8.08 4.8 7.36 6.72 7.36C7.96 7.36 9.3 7.72 10.6 8.46L11.6 6C10.3 5.18 8.5 4.76 6.74 4.76C2.76 4.76 0.84 6.74 0.84 9.12C0.84 14.32 8.98 12.52 8.98 15.14C8.98 16 8.2 16.64 6.28 16.64C4.6 16.64 2.84 16.04 1.66 15.18L0.56 17.62C1.8 18.58 4.04 19.24 6.26 19.24ZM17.6339 16.4V13.16H24.1339V10.64H17.6339V7.6H24.9939V5H14.4139V19H25.2539V16.4H17.6339ZM30.7319 19H33.9719V7.64H38.4519V5H26.2519V7.64H30.7319V19Z" fill="#FBFF29"/>
<path d="M36.5 11.1667L52.3333 3.66667L44.8333 19.5L43.1667 12.8333L36.5 11.1667Z" fill="#FBFF29"/>
</svg>
